<svg width="152" height="127" viewBox="0 0 152 127" fill="none" xmlns="http://www.w3.org/2000/svg">
<rect x="42" y="89" width="88" height="28" fill="white"/>
<ellipse cx="46" cy="28.5" rx="16" ry="13.5" fill="white"/>
<path d="M134.046 83.1877V126.077H72.109C71.7203 126.077 71.3963 126.077 71.0076 126.077C36.2165 126.077 7.96892 97.8945 7.96892 63.0386C7.96892 57.6612 8.68158 52.4134 9.91255 47.36C11.1435 40.4925 5.63655 29.4785 0 22.2223C9.1351 23.2589 22.4814 22.5462 26.5631 18.3998C37.9657 6.99709 53.7092 0 71.0724 0C87.6581 0 102.754 6.414 113.962 16.9096L114.869 18.335L72.5625 60.7063C71.5907 61.6781 71.5907 63.1682 72.5625 64.14C73.016 64.5936 73.6639 64.8527 74.3118 64.8527C74.9596 64.8527 75.5427 64.5936 76.061 64.14L136.703 3.49855C156.722 26.4335 155.88 61.2894 134.046 83.1877ZM44.7037 38.6136C49.6276 38.6136 53.5796 34.6615 53.5796 29.7377C53.5796 24.8138 49.6276 20.8617 44.7037 20.8617C43.0192 20.8617 41.5291 21.3152 40.1685 22.0927C40.2333 22.0927 40.2981 22.0927 40.3629 22.0927C43.0192 22.0927 45.1572 24.2307 45.1572 26.887C45.1572 29.5433 43.0192 31.7461 40.3629 31.7461C38.3545 31.7461 36.6052 30.5151 35.8925 28.7658C35.8925 28.8306 35.8925 28.8954 35.8925 28.9602C35.8925 29.1546 35.8277 29.4137 35.8277 29.6081C35.8277 30.9038 36.0869 32.1348 36.5404 33.2362C37.9657 36.4108 41.0756 38.6136 44.7037 38.6136ZM62.6499 102.689C62.6499 99.8382 60.9007 97.8298 57.143 97.8298C54.3571 97.8298 52.4134 98.9959 51.3768 100.097V92.258H46.0642V113.832H51.3768V103.725C52.0247 103.013 53.0613 102.235 54.5514 102.235C56.2359 102.235 57.2725 102.818 57.2725 104.762V113.832H62.5851V102.689H62.6499ZM80.4018 98.2185H75.0892V108.325C74.4413 109.038 73.4695 109.816 71.9146 109.816C70.1653 109.816 69.1935 109.168 69.1935 107.289V98.2185H63.8809V109.362C63.8809 112.213 65.5654 114.221 69.3231 114.221C72.109 114.221 74.0526 113.055 75.0892 111.954V113.832H80.4018V98.2185ZM128.928 102.494C128.928 99.3199 126.984 97.8298 123.939 97.8298C121.348 97.8298 119.145 99.2551 118.173 100.616C117.461 98.8016 115.841 97.8298 113.444 97.8298C110.917 97.8298 108.909 99.1255 108.066 100.033C108.001 99.9678 108.001 99.903 107.937 99.8382V99.7734H107.872C107.094 98.4128 105.54 97.765 103.531 97.765C102.883 97.765 102.235 97.8298 101.652 98.0241C99.6439 98.4128 98.0242 99.579 97.2467 100.68C96.534 98.8664 94.9143 97.8946 92.5172 97.8946C89.9257 97.8946 87.7877 99.2551 87.075 100.162V98.2833H81.7624V113.897H87.075V103.79C87.5933 103.142 88.6299 102.3 90.0552 102.3C91.6749 102.3 92.258 103.207 92.258 104.373V113.897H97.5706V103.79C98.0889 103.142 99.1255 102.3 100.551 102.3C101.847 102.3 102.495 102.883 102.689 103.725V113.897H108.066V103.661C108.649 103.013 109.621 102.171 110.982 102.171C112.601 102.171 113.185 103.078 113.185 104.244V113.768H118.497V103.661C119.015 103.013 120.052 102.171 121.477 102.171C123.032 102.171 123.68 103.078 123.68 104.244V113.768H128.928V102.494Z" fill="#FF6C00"/>
<path d="M148.625 8.6831L147.927 7.42466C148.25 7.31165 148.61 6.99319 148.61 6.39736C148.61 5.76043 148.178 5.25705 147.418 5.25705H145.703V8.6831H146.586V7.53252H147.038L147.613 8.6831H148.625ZM147.285 6.76205H146.586V6.02753H147.285C147.521 6.02753 147.711 6.15594 147.711 6.39222C147.711 6.63364 147.521 6.76205 147.285 6.76205Z" fill="#FF6C00"/>
<path fill-rule="evenodd" clip-rule="evenodd" d="M149.834 4.16484C149.087 3.41758 148.076 3 147 3C145.923 3 144.912 3.41758 144.165 4.16484C143.418 4.91209 143 5.92308 143 7C143 8.07692 143.418 9.08791 144.165 9.83517C144.912 10.5824 145.923 11 147 11C148.076 11 149.087 10.5824 149.834 9.83517C150.582 9.08791 150.999 8.07692 150.999 7C151.021 5.94506 150.604 4.93407 149.834 4.16484ZM144.011 7.02198C144.011 8.67033 145.351 10.011 147 10.011C148.648 10.011 149.988 8.67033 149.988 7.02198C149.988 5.37363 148.648 4.03297 147 4.03297C145.351 4.03297 144.011 5.37363 144.011 7.02198Z" fill="#FF6C00"/>
</svg>
